<svg width="50" height="50" viewBox="0 0 50 50" fill="none" xmlns="http://www.w3.org/2000/svg">
<circle cx="25" cy="25" r="25" fill="white"/>
<path d="M12.768 11.396C12.432 11.708 12.36 11.996 12.36 12.272C12.36 12.536 12.432 12.812 12.768 13.124L16.536 16.532C17.064 17.012 17.712 16.964 18.168 16.508C18.612 16.052 18.708 15.308 18.18 14.864L15.108 12.26L18.18 9.656C18.708 9.212 18.612 8.468 18.168 8.012C17.712 7.556 17.064 7.508 16.536 7.988L12.768 11.396Z" fill="#333333"/>
<path d="M23.04 29.912V27.44C23.04 26.048 22.776 25.616 21.324 25.616H14.904C13.452 25.616 13.188 26.048 13.188 27.44V28.088C13.188 29.48 13.452 29.912 14.904 29.912H23.04ZM19.392 25.124C19.968 25.124 20.184 24.692 20.184 24.296C20.184 23.888 19.944 23.444 19.392 23.444H15.42C15.204 23.444 15.108 23.324 15.108 23.168V23.108C15.108 22.952 15.204 22.82 15.42 22.82H19.2V20.456C19.2 19.556 18.708 18.944 17.484 18.944H13.512C12.96 18.944 12.708 19.376 12.708 19.796C12.708 20.18 12.948 20.624 13.512 20.624H16.512C16.728 20.624 16.812 20.696 16.812 20.852V21.26H14.508C13.284 21.26 12.648 21.968 12.648 22.988V23.216C12.648 24.212 13.296 25.124 14.508 25.124H19.392ZM20.592 25.196H22.968V22.916H23.34C24.06 22.916 24.288 22.376 24.288 21.884C24.288 21.404 24.072 20.852 23.34 20.852H22.968V19.832C22.968 19.064 22.404 18.644 21.78 18.644C21.144 18.644 20.592 19.052 20.592 19.832V25.196ZM15.552 27.896V27.608C15.552 27.392 15.6 27.248 15.84 27.248H20.376C20.616 27.248 20.676 27.392 20.676 27.608V28.268H15.84C15.6 28.268 15.552 28.136 15.552 27.896ZM32.856 26.312C33.012 26.312 33.048 26.36 33.048 26.492V26.792H26.712C25.644 26.792 25.056 27.344 25.056 28.184V28.328C25.056 29.168 25.644 29.912 26.712 29.912H35.124C35.604 29.912 35.796 29.552 35.796 29.24C35.796 28.88 35.592 28.52 35.124 28.52H27.852C27.672 28.52 27.588 28.424 27.588 28.304V28.268C27.588 28.148 27.672 28.04 27.852 28.04H35.484V26.168C35.484 25.244 35.112 24.932 34.068 24.932H25.824C25.392 24.932 25.188 25.292 25.188 25.616C25.188 25.964 25.38 26.312 25.824 26.312H32.856ZM29.724 24.5C30.312 24.5 30.516 24.116 30.516 23.684C30.516 23.252 30.324 22.892 29.724 22.892H27.252C26.976 22.892 26.928 22.844 26.928 22.568V20.9C26.928 20.624 26.976 20.576 27.252 20.576H29.268C29.856 20.576 30.048 20.216 30.048 19.772C30.048 19.352 29.868 18.956 29.268 18.956H26.22C24.876 18.956 24.672 19.22 24.672 20.516V22.928C24.672 24.236 24.876 24.5 26.22 24.5H29.724ZM30.864 24.608H32.904V19.604C32.904 18.944 32.436 18.644 31.884 18.644C31.32 18.644 30.864 18.932 30.864 19.604V20.912H29.664C29.064 20.912 28.812 21.248 28.812 21.716C28.812 22.184 29.112 22.52 29.664 22.52H30.864V24.608ZM33.408 24.608H35.484V19.604C35.484 18.944 34.98 18.644 34.428 18.644C33.864 18.644 33.408 18.932 33.408 19.604V24.608Z" fill="#333333"/>
<path d="M30 33.204C30.324 32.436 30.012 31.992 29.388 31.824C28.764 31.668 28.2 31.872 27.864 32.652L24.372 40.776C24.036 41.556 24.384 42.012 24.996 42.18C25.62 42.336 26.196 42.144 26.532 41.352L30 33.204ZM32.979 32.988C32.451 32.508 31.803 32.556 31.347 33.012C30.903 33.468 30.807 34.212 31.335 34.656L34.395 37.26L31.335 39.864C30.807 40.308 30.903 41.052 31.347 41.508C31.803 41.964 32.451 42.012 32.979 41.532L36.747 38.124C37.083 37.812 37.155 37.536 37.155 37.272C37.155 36.996 37.083 36.708 36.747 36.396L32.979 32.988Z" fill="#333333"/>
</svg>
